<?xml version="1.0" encoding="utf-8"?>
<!-- Generator: Adobe Illustrator 21.0.0, SVG Export Plug-In . SVG Version: 6.00 Build 0)  -->
<svg version="1.1" id="Layer_1" xmlns="http://www.w3.org/2000/svg" xmlns:xlink="http://www.w3.org/1999/xlink" x="0px" y="0px"
	 viewBox="0 0 151.5 44.1" style="enable-background:new 0 0 151.5 44.1;" xml:space="preserve">
<style type="text/css">
	.st0{fill:#F4F2F3;}
	.st1{fill:#E02146;}
</style>
<g>
	<path class="st0" d="M74,28.4c-1.2-0.6-2.2-1.5-3-2.5c-0.2-0.2-0.4-0.2-0.6,0c-0.3,0.5-0.7,1-1.3,1.5c-0.7,0.6-1.3,1.1-1.9,1.5
		c-0.1,0.1-0.3,0-0.4-0.1l-0.9-0.9c-0.2-0.2-0.1-0.4,0.1-0.5c0.9-0.4,1.7-1.1,2.4-1.9c0.8-1,1.2-1.9,1.2-2.9v-0.9h-3
		c-0.2,0-0.3-0.2-0.3-0.3v-1.1c0-0.2,0.2-0.3,0.3-0.3h7.9c0.2,0,0.3,0.2,0.3,0.3v1.1c0,0.2-0.2,0.3-0.3,0.3h-2.9v0.9
		c0,1,0.4,1.8,1.1,2.6c0.6,0.7,1.4,1.2,2.4,1.6c0.2,0.1,0.3,0.3,0.1,0.5l-0.8,1C74.3,28.4,74.1,28.4,74,28.4z M69,34.2v-4.7
		c0-0.2,0.2-0.3,0.3-0.3h1.4c0.2,0,0.3,0.2,0.3,0.3v2.9c0,0.2,0.2,0.3,0.3,0.3h7.9c0.2,0,0.3,0.2,0.3,0.3v1.1c0,0.2-0.2,0.3-0.3,0.3
		h-10C69.1,34.5,69,34.4,69,34.2z M77.4,30.1v-5c0-0.2-0.2-0.3-0.3-0.3h-2.4c-0.2,0-0.3-0.2-0.3-0.3v-1c0-0.2,0.2-0.3,0.3-0.3h2.4
		c0.2,0,0.3-0.2,0.3-0.3v-3.4c0-0.2,0.2-0.3,0.3-0.3h1.4c0.2,0,0.3,0.2,0.3,0.3v10.8c0,0.2-0.2,0.3-0.3,0.3h-1.4
		C77.6,30.5,77.4,30.3,77.4,30.1z"/>
	<path class="st0" d="M93.3,34.7v-3c0-0.2-0.2-0.3-0.3-0.3h-7.9c-0.2,0-0.3-0.2-0.3-0.3v-1.1c0-0.2,0.2-0.3,0.3-0.3h4.1v-1.3h-6
		c-0.2,0-0.3-0.2-0.3-0.3v-1.1c0-0.2,0.2-0.3,0.3-0.3h14.2c0.2,0,0.3,0.2,0.3,0.3v1.1c0,0.2-0.2,0.3-0.3,0.3h-6.1v1.3h3.9
		c0.2,0,0.3,0.2,0.3,0.3v4.8c0,0.2-0.2,0.3-0.3,0.3h-1.4C93.5,35,93.3,34.9,93.3,34.7z M85,25v-5.4c0-0.2,0.2-0.3,0.3-0.3h1.7v1.4
		h6.2v-1.4H95c0.2,0,0.3,0.2,0.3,0.3V25c0,0.2-0.2,0.3-0.3,0.3h-9.7C85.1,25.3,85,25.2,85,25z M93.3,22.4h-6.2v1.2h6.2V22.4z"/>
	<path class="st0" d="M116.3,34.7v-3.1c0-0.2-0.2-0.3-0.3-0.3H108c-0.2,0-0.3-0.2-0.3-0.3v-1.1c0-0.2,0.2-0.3,0.3-0.3h4.1v-1.4h-6
		c-0.2,0-0.3-0.2-0.3-0.3v-1.1c0-0.2,0.2-0.3,0.3-0.3h14.2c0.2,0,0.3,0.2,0.3,0.3v1.1c0,0.2-0.2,0.3-0.3,0.3h-6.1v1.4h3.9
		c0.2,0,0.3,0.2,0.3,0.3v4.8c0,0.2-0.2,0.3-0.3,0.3h-1.4C116.5,35,116.3,34.9,116.3,34.7z M119.2,25.4c-0.1,0.1-0.2,0.2-0.3,0.2
		c-1-0.1-2.1-0.4-3.2-0.8c-1-0.4-1.8-0.8-2.3-1.3c-0.1-0.1-0.3-0.1-0.4,0c-0.5,0.5-1.3,0.9-2.3,1.3c-1.1,0.4-2.2,0.7-3.3,0.8
		c-0.1,0-0.3,0-0.3-0.2l-1-1.5c1.3,0,2.4-0.2,3.5-0.6c1.1-0.4,1.8-0.9,2.2-1.5h-4.1c-0.2,0-0.3-0.2-0.3-0.3v-1
		c0-0.2,0.2-0.3,0.3-0.3h4.4v-1.4h2.1v1.4h4.4c0.2,0,0.3,0.2,0.3,0.3v1c0,0.2-0.2,0.3-0.3,0.3h-4.1c0.4,0.6,1.2,1.1,2.2,1.4
		c1.1,0.4,2.2,0.6,3.4,0.6L119.2,25.4z"/>
	<path class="st0" d="M129.6,30.8c-0.1,0.1-0.3,0.1-0.4,0c-0.4-0.3-0.8-0.8-1.3-1.3c-0.6-0.7-0.9-1.3-1.2-1.7
		c-0.2,0.6-0.6,1.3-1.2,2c-0.5,0.7-1,1.2-1.5,1.6c-0.1,0.1-0.3,0.1-0.4,0l-1-0.8c-0.2-0.1-0.1-0.4,0-0.5c0.9-0.7,1.6-1.5,2.2-2.5
		c0.6-1.1,0.9-2.3,0.9-3.6v-1.4c0-0.2-0.2-0.3-0.3-0.3h-2.1c-0.2,0-0.3-0.2-0.3-0.3v-1.1c0-0.2,0.2-0.3,0.3-0.3h6.5
		c0.2,0,0.3,0.2,0.3,0.3v1.1c0,0.2-0.2,0.3-0.3,0.3h-1.8c-0.2,0-0.3,0.2-0.3,0.3l0,1.4c0,1,0.1,1.9,0.5,2.8c0.5,1.1,1.2,2,2.2,2.8
		c0.2,0.1,0.2,0.4,0,0.5L129.6,30.8z M131.4,34.2v-7.9c0-0.2-0.2-0.3-0.3-0.3h-1.5c-0.2,0-0.3-0.2-0.3-0.3v-1c0-0.2,0.2-0.3,0.3-0.3
		h1.5c0.2,0,0.3-0.2,0.3-0.3v-4.3c0-0.2,0.2-0.3,0.3-0.3h1.4c0.2,0,0.3,0.2,0.3,0.3v14.5c0,0.2-0.2,0.3-0.3,0.3h-1.4
		C131.5,34.6,131.4,34.4,131.4,34.2z M134.6,34.7V19.4c0-0.2,0.2-0.3,0.3-0.3h1.4c0.2,0,0.3,0.2,0.3,0.3v15.3c0,0.2-0.2,0.3-0.3,0.3
		H135C134.8,35,134.6,34.9,134.6,34.7z"/>
</g>
<g>
	<path class="st1" d="M134.2,14c-1.2-0.3-2.1-1-2.6-1.9c-0.5-1-0.7-2.1-0.3-3.3c0.3-1.3,1-2.3,2-2.9c1-0.6,2.1-0.7,3.4-0.4
		c1.2,0.3,2,1,2.6,1.9c0.5,1,0.6,2.1,0.3,3.4c-0.3,1.3-1,2.3-2,2.9C136.5,14.2,135.4,14.4,134.2,14z M136.1,7.1
		c-0.7-0.2-1.2-0.1-1.8,0.3c-0.5,0.4-0.9,1-1.1,1.8c-0.2,0.8-0.2,1.5,0.1,2.1c0.3,0.6,0.7,1,1.3,1.1c0.6,0.2,1.2,0.1,1.7-0.3
		c0.5-0.4,0.9-1,1.1-1.8c0.2-0.9,0.2-1.6,0-2.2C137.2,7.6,136.8,7.2,136.1,7.1z"/>
	<path class="st1" d="M144.7,16.7l-0.6-0.2c-0.3-0.1-0.5-0.4-0.5-0.8l0.7-2.7c0.2-0.9,0-1.5-0.6-1.6c-0.3-0.1-0.6,0-0.9,0.2
		c-0.3,0.2-0.5,0.5-0.6,0.8l-0.7,2.8c-0.1,0.3-0.4,0.5-0.8,0.5l-0.6-0.2c-0.3-0.1-0.5-0.4-0.5-0.8l1.3-4.7c0.1-0.3,0.4-0.5,0.8-0.5
		l1.2,0.3l-0.3,0.9l0,0c0.6-0.6,1.4-0.8,2.2-0.6c1.3,0.4,1.8,1.3,1.3,3l-0.8,3C145.3,16.6,145,16.8,144.7,16.7z"/>
	<path class="st1" d="M147.9,17.7c-0.3-0.1-0.5-0.2-0.7-0.5c-0.2-0.2-0.2-0.5-0.1-0.8c0.1-0.3,0.2-0.5,0.5-0.6
		c0.3-0.1,0.5-0.1,0.8-0.1c0.3,0.1,0.5,0.2,0.7,0.5c0.1,0.2,0.2,0.5,0.1,0.8c-0.1,0.3-0.2,0.5-0.5,0.6
		C148.5,17.7,148.2,17.8,147.9,17.7z M150.9,10.1l-1.4,4.4c-0.1,0.3-0.4,0.5-0.8,0.4l-0.3-0.1c-0.3-0.1-0.5-0.4-0.5-0.8l1-4.5
		c0.1-0.4,0.4-0.6,0.8-0.5l0.6,0.2C150.8,9.4,151,9.8,150.9,10.1z"/>
</g>
<g>
	<path class="st1" d="M48.4,34.7c-1.7,0-3.1,1.4-3.1,3.1c0,0,0,0.1,0,0.1c0.1,1.7,1.4,3,3.1,3s3-1.3,3.1-3c0,0,0-0.1,0-0.1
		C51.5,36.1,50.1,34.7,48.4,34.7z M48.4,39.7c-1,0-1.7-0.7-1.8-1.7c0,0,0-0.1,0-0.1c0-1,0.8-1.8,1.8-1.8s1.8,0.8,1.8,1.8
		c0,0,0,0.1,0,0.1C50.2,38.9,49.4,39.7,48.4,39.7z"/>
	<path class="st1" d="M19.2,34.7c-1.7,0-3.1,1.4-3.1,3.1c0,0,0,0.1,0,0.1c0.1,1.7,1.4,3,3.1,3s3-1.3,3.1-3c0,0,0-0.1,0-0.1
		C22.3,36.1,20.9,34.7,19.2,34.7z M19.2,39.7c-1,0-1.7-0.7-1.8-1.7c0,0,0-0.1,0-0.1c0-1,0.8-1.8,1.8-1.8s1.8,0.8,1.8,1.8
		c0,0,0,0.1,0,0.1C21,38.9,20.2,39.7,19.2,39.7z"/>
	<path class="st1" d="M33.2,14.9c-0.8,0-1.5,0.7-1.5,1.5c0,0,0,0,0,0c0,0.7,0.5,1.3,1.1,1.5c0.1,0,0.2,0.1,0.4,0.1s0.3,0,0.4-0.1
		c0.7-0.2,1.1-0.8,1.1-1.5c0,0,0,0,0,0C34.7,15.6,34,14.9,33.2,14.9z"/>
	<path class="st1" d="M53.6,19.8c-1.9-1.2-4.1-1.9-6.5-1.9h-4.9v-0.8c0-0.4-0.3-0.7-0.7-0.7h-5.1c0-0.9-0.4-1.7-1-2.3l3.7-5.4
		L38,7.9l-3.8,5.5c-0.3-0.1-0.7-0.2-1-0.2c-1.8,0-3.3,1.4-3.3,3.2h-5.4c-0.4,0-0.7,0.3-0.7,0.7v0.8h-10c-2.4,0-4.4,2-4.4,4.4v14.2
		c0,0.8,0.7,1.5,1.5,1.5h4.7c0,0,0-0.1,0-0.1c0-2,1.7-3.7,3.7-3.7c2,0,3.7,1.7,3.7,3.7c0,0,0,0.1,0,0.1h21.8c0,0,0-0.1,0-0.1
		c0-2,1.7-3.7,3.7-3.7c2,0,3.7,1.7,3.7,3.7c0,0,0,0.1,0,0.1h5.6c0.8,0,1.5-0.7,1.5-1.5v-6.3V30C59.2,25.7,57,22,53.6,19.8z
		 M22.6,26.7c0,0.3-0.2,0.5-0.5,0.5h-6.4c-0.3,0-0.5-0.2-0.5-0.5v-5.1c0-0.3,0.2-0.5,0.5-0.5h6.4c0.3,0,0.5,0.2,0.5,0.5V26.7z
		 M31.7,26.7c0,0.3-0.2,0.5-0.5,0.5h-6.4c-0.3,0-0.5-0.2-0.5-0.5v-5.1c0-0.3,0.2-0.5,0.5-0.5h6.4c0.3,0,0.5,0.2,0.5,0.5V26.7z
		 M31.6,17.9C31.2,17.5,31,17,31,16.5c0,0,0,0,0,0c0-1.2,1-2.1,2.2-2.1s2.2,1,2.2,2.1c0,0,0,0,0,0c0,0.6-0.2,1.1-0.6,1.5
		c-0.4,0.4-1,0.7-1.6,0.7S32,18.4,31.6,17.9z M40.7,26.7c0,0.3-0.2,0.5-0.5,0.5h-6.4c-0.3,0-0.5-0.2-0.5-0.5v-5.1
		c0-0.3,0.2-0.5,0.5-0.5h6.4c0.3,0,0.5,0.2,0.5,0.5V26.7z M49.8,26.7c0,0.3-0.2,0.5-0.5,0.5h-6.4c-0.3,0-0.5-0.2-0.5-0.5v-5.1
		c0-0.3,0.2-0.5,0.5-0.5h6.4c0.3,0,0.5,0.2,0.5,0.5V26.7z M57.3,31l-4.8-1.7c-0.5-0.2-0.8-0.6-0.8-1.1v-6.8c0-0.3,0.3-0.5,0.6-0.3
		c3,2.2,5,5.7,5,9.8V31z"/>
	<rect x="38.2" y="5.3" transform="matrix(0.5685 -0.8227 0.8227 0.5685 11.891 35.5671)" class="st1" width="3.2" height="2.3"/>
	<path class="st1" d="M24.7,14c0,0.6,1,0.6,1,0C26,9.8,30.2,7.4,34,9.1c0.6,0.3,1.1-0.6,0.5-0.9C30,6.2,25.1,9,24.7,14z"/>
	<path class="st1" d="M20.5,14.4c0.1-3.8,2-7.5,5.2-9.6c3-1.9,7.8-2.7,10.8-0.5c0.5,0.4,1-0.5,0.5-0.9C33.6,1,28.4,2,25.1,4
		c-3.6,2.2-5.6,6.4-5.7,10.4C19.4,15.1,20.4,15.1,20.5,14.4z"/>
</g>
</svg>
